<mxfile host="app.diagrams.net" modified="2020-10-07T18:36:32.229Z" agent="5.0 (Windows NT 10.0; Win64; x64) AppleWebKit/537.36 (KHTML, like Gecko) Chrome/85.0.4183.121 Safari/537.36 Edg/85.0.564.68" etag="96GLgQ8_qPJobqThWhpk" version="13.7.7" type="github">
  <diagram id="C5RBs43oDa-KdzZeNtuy" name="Page-1">
    <mxGraphModel dx="487" dy="535" grid="1" gridSize="10" guides="1" tooltips="1" connect="1" arrows="1" fold="1" page="1" pageScale="1" pageWidth="827" pageHeight="1169" math="0" shadow="0">
      <root>
        <mxCell id="WIyWlLk6GJQsqaUBKTNV-0" />
        <mxCell id="WIyWlLk6GJQsqaUBKTNV-1" parent="WIyWlLk6GJQsqaUBKTNV-0" />
        <mxCell id="n_ZB1tPL2OfmeATOweve-4" style="edgeStyle=orthogonalEdgeStyle;rounded=0;orthogonalLoop=1;jettySize=auto;html=1;entryX=0.5;entryY=0;entryDx=0;entryDy=0;" edge="1" parent="WIyWlLk6GJQsqaUBKTNV-1" source="n_ZB1tPL2OfmeATOweve-1" target="n_ZB1tPL2OfmeATOweve-2">
          <mxGeometry relative="1" as="geometry" />
        </mxCell>
        <mxCell id="n_ZB1tPL2OfmeATOweve-5" style="edgeStyle=orthogonalEdgeStyle;rounded=0;orthogonalLoop=1;jettySize=auto;html=1;" edge="1" parent="WIyWlLk6GJQsqaUBKTNV-1" source="n_ZB1tPL2OfmeATOweve-1" target="n_ZB1tPL2OfmeATOweve-3">
          <mxGeometry relative="1" as="geometry" />
        </mxCell>
        <mxCell id="n_ZB1tPL2OfmeATOweve-1" value="Estrategias de comprensión lectora" style="text;strokeColor=none;fillColor=none;html=1;fontSize=24;fontStyle=1;verticalAlign=middle;align=center;" vertex="1" parent="WIyWlLk6GJQsqaUBKTNV-1">
          <mxGeometry x="199" y="50" width="430" height="40" as="geometry" />
        </mxCell>
        <mxCell id="n_ZB1tPL2OfmeATOweve-9" value="" style="edgeStyle=orthogonalEdgeStyle;rounded=0;orthogonalLoop=1;jettySize=auto;html=1;" edge="1" parent="WIyWlLk6GJQsqaUBKTNV-1" source="n_ZB1tPL2OfmeATOweve-2" target="n_ZB1tPL2OfmeATOweve-7">
          <mxGeometry relative="1" as="geometry" />
        </mxCell>
        <mxCell id="n_ZB1tPL2OfmeATOweve-2" value="&lt;font style=&quot;font-size: 14px&quot;&gt;ESTRATEGIA REFERENCIAL&lt;/font&gt;" style="rounded=1;whiteSpace=wrap;html=1;" vertex="1" parent="WIyWlLk6GJQsqaUBKTNV-1">
          <mxGeometry x="173.75" y="170" width="170" height="40" as="geometry" />
        </mxCell>
        <mxCell id="n_ZB1tPL2OfmeATOweve-11" value="" style="edgeStyle=orthogonalEdgeStyle;rounded=0;orthogonalLoop=1;jettySize=auto;html=1;" edge="1" parent="WIyWlLk6GJQsqaUBKTNV-1" source="n_ZB1tPL2OfmeATOweve-3" target="n_ZB1tPL2OfmeATOweve-8">
          <mxGeometry relative="1" as="geometry" />
        </mxCell>
        <mxCell id="n_ZB1tPL2OfmeATOweve-3" value="&lt;font style=&quot;font-size: 14px&quot;&gt;ESTRATEGIA INFERENCIAL&lt;/font&gt;" style="rounded=1;whiteSpace=wrap;html=1;" vertex="1" parent="WIyWlLk6GJQsqaUBKTNV-1">
          <mxGeometry x="530" y="170" width="170" height="40" as="geometry" />
        </mxCell>
        <mxCell id="n_ZB1tPL2OfmeATOweve-7" value="cuando se busca información o datos específicos de un texto, se pone en practica la comprensión lectora referencial o de referencia. consiste en una lectura rápida y general con el fin de reconocer, comprender y recordar la información contenida en un texto" style="rounded=0;whiteSpace=wrap;html=1;glass=0;sketch=0;" vertex="1" parent="WIyWlLk6GJQsqaUBKTNV-1">
          <mxGeometry x="140" y="235" width="237.5" height="110" as="geometry" />
        </mxCell>
        <mxCell id="n_ZB1tPL2OfmeATOweve-8" value="La compresión lectora inferencial requiere mas trabajo por parte del lector, quien no solo deberá identificar y extraer la info del texto, sino que tendrá que analizar, comparar, criticar y deducir a partir de lo que sabe sobre el tema" style="rounded=0;whiteSpace=wrap;html=1;" vertex="1" parent="WIyWlLk6GJQsqaUBKTNV-1">
          <mxGeometry x="500" y="237.5" width="230" height="105" as="geometry" />
        </mxCell>
      </root>
    </mxGraphModel>
  </diagram>
</mxfile>
